# xmcd
#
# Track frame offsets:
#	150
#	19518
#	36393
#	58667
#	88603
#	99967
#	126442
#	149620
#	165258
#	181365
#	203777
#
# Disc length: 2857 seconds
#
# Revision: 1
# Processed by: cddbd v1.5.2PL0 Copyright (c) Steve Scherf et al.
# Submitted via: audiograbber 1.83.01
#
DISCID=920b270b
DTITLE=Tas Cru - Jus' Desserts
DYEAR=1900
DGENRE=
TTITLE0=Just Let It Happen
TTITLE1=Glad To Be Alive
TTITLE2=The Real Deal
TTITLE3=Time And Time
TTITLE4=Dat Maybe
TTITLE5=My GPS Mama
TTITLE6=Eau de 'Nother Man
TTITLE7=Kinda Mess
TTITLE8=Swing Doctor
TTITLE9=Jus' Dessert
TTITLE10=The Lucky Ones
EXTD=
EXTT0=
EXTT1=
EXTT2=
EXTT3=
EXTT4=
EXTT5=
EXTT6=
EXTT7=
EXTT8=
EXTT9=
EXTT10=
PLAYORDER=
